<svg width="478" height="478" viewBox="0 0 478 478" fill="none" xmlns="http://www.w3.org/2000/svg">
<circle cx="239.097" cy="239.158" r="238.76" fill="#00C208" fill-opacity="0.25"/>
<path d="M239.098 249.5V327.5H161.432C161.432 306.813 169.614 286.974 184.18 272.346C198.745 257.718 218.5 249.5 239.098 249.5V249.5ZM239.098 239.75C206.915 239.75 180.848 213.571 180.848 181.25C180.848 148.929 206.915 122.75 239.098 122.75C271.281 122.75 297.348 148.929 297.348 181.25C297.348 213.571 271.281 239.75 239.098 239.75ZM324.803 316.073L297.348 343.656L269.893 316.073C264.461 310.619 260.761 303.67 259.262 296.105C257.763 288.539 258.531 280.697 261.47 273.57C264.409 266.443 269.386 260.351 275.772 256.065C282.159 251.779 289.667 249.492 297.348 249.492C305.029 249.492 312.538 251.779 318.924 256.065C325.311 260.351 330.288 266.443 333.227 273.57C336.166 280.697 336.934 288.539 335.435 296.105C333.935 303.67 330.236 310.619 324.803 316.073V316.073ZM297.348 278.75C294.773 278.75 292.304 279.777 290.483 281.606C288.663 283.434 287.64 285.914 287.64 288.5C287.64 291.086 288.663 293.566 290.483 295.394C292.304 297.223 294.773 298.25 297.348 298.25C299.923 298.25 302.392 297.223 304.213 295.394C306.034 293.566 307.057 291.086 307.057 288.5C307.057 285.914 306.034 283.434 304.213 281.606C302.392 279.777 299.923 278.75 297.348 278.75Z" fill="#00C208"/>
</svg>
