<svg xmlns="http://www.w3.org/2000/svg" width="73.689" height="477.519" viewBox="0 0 73.689 477.519">
  <g id="Group_367" data-name="Group 367" transform="translate(-182.269 -466.498)">
    <path id="Path_67" data-name="Path 67" d="M237.035,662.459S234.959,617.812,192.406,623" transform="translate(4.393 -122.256)" fill="#ddd"/>
    <path id="Path_68" data-name="Path 68" d="M237.584,782.171c.054-.466,5.077-46.99-15.262-71.606a41.387,41.387,0,0,0-29.891-15.125l-.135,1.753a39.7,39.7,0,0,1,28.667,14.486c19.86,24.042,14.925,69.834,14.874,70.293Z" transform="translate(4.345 -90.684)" fill="#ddd"/>
    <rect id="Rectangle_4" data-name="Rectangle 4" width="1.771" height="449.46" transform="translate(241.877 494.556)" fill="#ddd"/>
    <ellipse id="Ellipse_26" data-name="Ellipse 26" cx="14.53" cy="14.53" rx="14.53" ry="14.53" transform="translate(226.898 466.498)" fill="#ddd"/>
    <ellipse id="Ellipse_27" data-name="Ellipse 27" cx="14.439" cy="14.439" rx="14.439" ry="14.439" transform="translate(182.269 591.193)" fill="#ddd"/>
  </g>
</svg>
