<svg width="246" height="247" viewBox="0 0 246 247" fill="none" xmlns="http://www.w3.org/2000/svg">
<path d="M163.391 173.887H82.7246V163.803C82.7246 157.118 85.3805 150.706 90.108 145.978C94.8354 141.251 101.247 138.595 107.933 138.595H138.183C144.869 138.595 151.28 141.251 156.008 145.978C160.735 150.706 163.391 157.118 163.391 163.803V173.887ZM123.058 128.512C119.085 128.512 115.152 127.729 111.482 126.209C107.812 124.689 104.477 122.461 101.668 119.652C98.859 116.843 96.6308 113.508 95.1106 109.838C93.5904 106.168 92.8079 102.234 92.8079 98.2616C92.8079 94.2891 93.5904 90.3555 95.1106 86.6854C96.6308 83.0153 98.859 79.6806 101.668 76.8716C104.477 74.0626 107.812 71.8344 111.482 70.3142C115.152 68.794 119.085 68.0116 123.058 68.0116C131.081 68.0116 138.775 71.1986 144.448 76.8716C150.121 82.5446 153.308 90.2388 153.308 98.2616C153.308 106.284 150.121 113.979 144.448 119.652C138.775 125.325 131.081 128.512 123.058 128.512V128.512Z" fill="#009E23"/>
<circle cx="123.058" cy="123.47" r="122.621" fill="#40C700" fill-opacity="0.25"/>
</svg>
