<svg width="478" height="478" viewBox="0 0 478 478" fill="none" xmlns="http://www.w3.org/2000/svg">
<circle cx="238.765" cy="239.158" r="238.76" fill="#0094FF" fill-opacity="0.25"/>
<path d="M277.432 229.491C293.478 229.491 306.335 216.538 306.335 200.491C306.335 184.444 293.478 171.491 277.432 171.491C261.385 171.491 248.432 184.444 248.432 200.491C248.432 216.538 261.385 229.491 277.432 229.491ZM200.098 229.491C216.145 229.491 229.002 216.538 229.002 200.491C229.002 184.444 216.145 171.491 200.098 171.491C184.052 171.491 171.098 184.444 171.098 200.491C171.098 216.538 184.052 229.491 200.098 229.491ZM200.098 248.824C177.575 248.824 132.432 260.134 132.432 282.658V306.824H267.765V282.658C267.765 260.134 222.622 248.824 200.098 248.824ZM277.432 248.824C274.628 248.824 271.438 249.018 268.055 249.308C279.268 257.428 287.098 268.351 287.098 282.658V306.824H345.098V282.658C345.098 260.134 299.955 248.824 277.432 248.824Z" fill="#0094FF"/>
</svg>
